<svg xmlns="http://www.w3.org/2000/svg" xmlns:xlink="http://www.w3.org/1999/xlink" width="81" height="117" viewBox="0 0 81 117">
  <defs>
    <filter id="Rectangle_1" x="0" y="0" width="81" height="117" filterUnits="userSpaceOnUse">
      <feOffset input="SourceAlpha"/>
      <feGaussianBlur stdDeviation="3" result="blur"/>
      <feFlood flood-opacity="0.161"/>
      <feComposite operator="in" in2="blur"/>
      <feComposite in="SourceGraphic"/>
    </filter>
  </defs>
  <g id="logo-box" transform="translate(-908 -22.803)">
    <g transform="matrix(1, 0, 0, 1, 908, 22.8)" filter="url(#Rectangle_1)">
      <rect id="Rectangle_1-2" data-name="Rectangle 1" width="63" height="99" rx="31.5" transform="translate(9 9)" fill="#fff"/>
    </g>
    <g id="Group_1" data-name="Group 1" transform="translate(932.615 55.323)">
      <path id="Path_1" data-name="Path 1" d="M-645.4,142.787a.559.559,0,0,1-.415-.185c-3.922-4.357-13.795-9.893-13.894-9.948a.559.559,0,0,1-.278-.392.559.559,0,0,1,.129-.463c6.1-7.011,13.836-41.021,13.914-41.364a.559.559,0,0,1,.668-.422.559.559,0,0,1,.422.668c-.019.086-1.978,8.727-4.678,18.135-3.448,12.015-6.491,19.807-9.056,23.188,2.118,1.217,9.413,5.535,13.13,9.345a50.329,50.329,0,0,1,9.895-10.2A71.857,71.857,0,0,1-645.2,122.8a21.676,21.676,0,0,1-3.61,6.368.559.559,0,0,1-.79.025.559.559,0,0,1-.025-.79c2.121-2.258,3.678-6.806,3.693-6.851a.559.559,0,0,1,.423-.369.558.558,0,0,1,.53.184c3.867,4.5,10.628,9.29,10.7,9.338a.559.559,0,0,1,.237.46.559.559,0,0,1-.242.457c-5.818,4-10.607,10.859-10.655,10.928a.558.558,0,0,1-.424.239Z" transform="translate(660 -89.999)"/>
      <path id="Path_2" data-name="Path 2" d="M-433.039,432.616a.556.556,0,0,1-.287-.08.559.559,0,0,1-.192-.767c1.667-2.778,7.179-7.524,9.027-9.076a52.465,52.465,0,0,1-10.853-9.865.559.559,0,0,1,.082-.786.559.559,0,0,1,.786.082c.052.064,5.267,6.446,11.227,10.023a.558.558,0,0,1,.27.438.559.559,0,0,1-.2.473c-.075.061-7.506,6.166-9.377,9.285A.559.559,0,0,1-433.039,432.616Z" transform="translate(456.38 -381.937)"/>
      <path id="Path_3" data-name="Path 3" d="M-505.6,274.618a.557.557,0,0,1-.414-.183,20.16,20.16,0,0,1-4.785-8.172l-7.669,5.024a.558.558,0,0,1-.662-.036.559.559,0,0,1-.161-.643c1.116-2.719,2.4-10.032,2.414-10.106a.558.558,0,0,1,.647-.454.559.559,0,0,1,.454.647c-.045.258-.96,5.459-1.944,8.767l6.99-4.58a.558.558,0,0,1,.54-.04.559.559,0,0,1,.32.437c0,.037.552,3.862,4.682,8.4a.559.559,0,0,1-.038.789A.557.557,0,0,1-505.6,274.618Z" transform="translate(532.431 -244.202)"/>
    </g>
  </g>
</svg>
